<svg xmlns="http://www.w3.org/2000/svg" fill="none" viewBox="0 0 24 24" stroke-width="1.5" stroke="currentColor" aria-hidden="true" data-slot="icon">
  <path stroke-linecap="round" stroke-linejoin="round" d="M17.715 15.15A6.5 6.5 0 0 1 9 6.035C6.106 6.922 4 9.645 4 12.867c0 3.94 3.153 7.136 7.042 7.136 3.101 0 5.734-2.032 6.673-4.853Z"/>
  <path stroke-linecap="round" stroke-linejoin="round" d="M17 3a1 1 0 0 1 1 1 2 2 0 0 0 2 2 1 1 0 1 1 0 2 2 2 0 0 0-2 2 1 1 0 1 1-2 0 2 2 0 0 0-2-2 1 1 0 1 1 0-2 2 2 0 0 0 2-2 1 1 0 0 1 1-1Z"/>
</svg>
